<svg xmlns:dc="http://purl.org/dc/elements/1.1/" xmlns:cc="http://creativecommons.org/ns#" xmlns:rdf="http://www.w3.org/1999/02/22-rdf-syntax-ns#" xmlns:svg="http://www.w3.org/2000/svg" xmlns="http://www.w3.org/2000/svg" xmlns:sodipodi="http://sodipodi.sourceforge.net/DTD/sodipodi-0.dtd" xmlns:inkscape="http://www.inkscape.org/namespaces/inkscape" version="1.1" x="0px" y="0px" viewBox="0 0 100 125"><g transform="translate(0,-952.36218)"><path style="text-indent:0;text-transform:none;direction:ltr;block-progression:tb;baseline-shift:baseline;color:#000000;enable-background:accumulate;" d="m 67,971.36217 c -5.4991,0 -10,4.50082 -10,10 0,1.123 0.1857,2.20885 0.5312,3.21875 l -17.125,11.125 c -1.8339,-2.03453 -4.4689,-3.34375 -7.4062,-3.34375 -5.4991,0 -10,4.50082 -10,10.00003 0,5.4992 4.5009,10 10,10 2.9494,0 5.6028,-1.2947 7.4375,-3.3438 l 17.0937,11.125 c -0.3515,1.0177 -0.5312,2.0857 -0.5312,3.2188 0,5.4992 4.5009,10 10,10 5.4991,0 10,-4.5008 10,-10 0,-5.4992 -4.5009,-10 -10,-10 -2.9373,0 -5.5723,1.3092 -7.4062,3.3437 l -17.125,-11.125 c 0.3455,-1.0099 0.5312,-2.0957 0.5312,-3.2187 0,-1.1331 -0.1797,-2.2011 -0.5312,-3.21881 l 17.0937,-11.12497 c 1.8347,2.04912 4.4881,3.34375 7.4375,3.34375 5.4991,0 10,-4.50082 10,-10 0,-5.49918 -4.5009,-10 -10,-10 z" fill="#000000" fill-opacity="1" stroke="none" marker="none" visibility="visible" display="inline" overflow="visible"/></g><text x="0" y="115" fill="#000000" font-size="5px" font-weight="bold" font-family="'Helvetica Neue', Helvetica, Arial-Unicode, Arial, Sans-serif">Created by Barracuda</text><text x="0" y="120" fill="#000000" font-size="5px" font-weight="bold" font-family="'Helvetica Neue', Helvetica, Arial-Unicode, Arial, Sans-serif">from the Noun Project</text></svg>