<svg xmlns="http://www.w3.org/2000/svg" xmlns:xlink="http://www.w3.org/1999/xlink" version="1.1" x="0px" y="0px" viewBox="0 0 100 125" enable-background="new 0 0 100 100" xml:space="preserve"><path d="M37.5,74.5c-14.065,0-25.363-11.853-24.448-26.115c0.763-11.907,10.247-21.683,22.127-22.778  c6.389-0.589,12.326,1.282,16.983,4.77c1.351,1.011,3.201,1.025,4.589,0.065l0.067-0.046c2.213-1.532,2.302-4.798,0.148-6.413  c-5.875-4.406-13.287-6.871-21.292-6.432C19.452,18.439,6.194,31.493,5.079,47.701C3.773,66.69,18.79,82.5,37.5,82.5  c6.965,0,13.418-2.192,18.707-5.924c2.225-1.57,2.148-4.907-0.091-6.458l-0.067-0.047c-1.346-0.932-3.141-0.961-4.48-0.019  C47.587,72.853,42.737,74.5,37.5,74.5z"/><path d="M94.062,47.489L81.154,38.37C79.829,37.434,78,38.381,78,40.003V45H48.465C46.551,45,45,46.551,45,48.465v0.07  C45,50.449,46.551,52,48.465,52H78v5.451c0,1.588,1.762,2.543,3.092,1.675L94,50.711C95.103,49.933,95.134,48.308,94.062,47.489z"/><text x="0" y="115" fill="#000000" font-size="5px" font-weight="bold" font-family="'Helvetica Neue', Helvetica, Arial-Unicode, Arial, Sans-serif">Created by Diana Militano</text><text x="0" y="120" fill="#000000" font-size="5px" font-weight="bold" font-family="'Helvetica Neue', Helvetica, Arial-Unicode, Arial, Sans-serif">from the Noun Project</text></svg>