<svg xmlns="http://www.w3.org/2000/svg" xmlns:xlink="http://www.w3.org/1999/xlink" version="1.1" x="0px" y="0px" viewBox="0 0 512 640" style="enable-background:new 0 0 512 512;" xml:space="preserve"><g><path d="M355,217v23.2c0,54.4-44.6,98.6-99,98.6c-54.4,0-99-44.2-99-98.6V217h-20v23.2c0,62,48.2,113.1,109,118.2V416h-69v20h158   v-20h-69v-57.6c60.8-5.1,109-56.2,109-118.2V217H355z"/><path d="M256,306.3c34.5,0,63-28.1,63-62.6V138.6c0-34.5-28.5-62.6-63-62.6s-63,28.1-63,62.6v105.1   C193,278.2,221.5,306.3,256,306.3z"/></g><text x="0" y="527" fill="#000000" font-size="5px" font-weight="bold" font-family="'Helvetica Neue', Helvetica, Arial-Unicode, Arial, Sans-serif">Created by Manohara</text><text x="0" y="532" fill="#000000" font-size="5px" font-weight="bold" font-family="'Helvetica Neue', Helvetica, Arial-Unicode, Arial, Sans-serif">from the Noun Project</text></svg>