<svg xmlns="http://www.w3.org/2000/svg" xmlns:xlink="http://www.w3.org/1999/xlink" version="1.1" x="0px" y="0px" viewBox="0 0 100 125" enable-background="new 0 0 100 100" xml:space="preserve"><g><path d="M51.256,53.924c0-4.812-3.912-8.723-8.732-8.723c-4.812,0-8.715,3.911-8.715,8.723c0,4.828,3.903,8.732,8.715,8.732   C47.344,62.656,51.256,58.752,51.256,53.924L51.256,53.924z"/></g><g><path d="M34.635,63.887c-8.004,3.807-12.182,12.773-9.922,21.352c11.34,5.037,24.291,5.037,35.632,0   c2.258-8.578-1.912-17.545-9.923-21.352C45.797,67.555,39.268,67.555,34.635,63.887z"/></g><g><path d="M70.947,52.084c0-3.701-3.006-6.713-6.723-6.713c-3.709,0-6.715,3.013-6.715,6.713c0,3.703,3.006,6.723,6.715,6.723   C67.941,58.807,70.947,55.787,70.947,52.084L70.947,52.084z"/></g><g><path d="M53.289,63.545c1.32-1.604,2.988-2.898,4.861-3.789c3.564,2.826,8.594,2.826,12.158,0c6.162,2.939,9.379,9.85,7.629,16.441   c-4.811,2.156-10.076,3.137-15.357,2.885C62.119,72.715,58.678,66.955,53.289,63.545z"/></g><g><path d="M27.547,52.084c0-3.701-3.004-6.713-6.715-6.713c-3.709,0-6.723,3.013-6.723,6.713c0,3.703,3.014,6.723,6.723,6.723   C24.543,58.807,27.547,55.787,27.547,52.084L27.547,52.084z"/></g><g><path d="M22.477,79.082c0.453-6.367,3.913-12.127,9.292-15.537c-1.321-1.604-2.981-2.898-4.861-3.789   c-3.562,2.826-8.595,2.826-12.158,0c-6.163,2.939-9.387,9.85-7.638,16.441C11.938,78.354,17.188,79.334,22.477,79.082z"/></g><g><path d="M62.727,40.123c2.957,0.809,6.002,1.215,9.072,1.215c3.158,0,6.301-0.455,9.355-1.297c2.592-0.721,5.045-1.855,7.289-3.369   c2.131-1.436,3.93-3.305,5.281-5.508c1.053-1.709,1.611-3.678,1.611-5.703c0-2.01-0.559-3.994-1.611-5.719   c-1.352-2.188-3.15-4.059-5.281-5.492c-2.244-1.506-4.697-2.641-7.289-3.369c-3.055-0.859-6.197-1.279-9.355-1.279   c-3.176,0-6.318,0.42-9.365,1.279c-2.592,0.729-5.053,1.863-7.289,3.369c-2.131,1.434-3.938,3.305-5.282,5.492   c-1.053,1.725-1.62,3.709-1.62,5.719c0,2.025,0.567,3.994,1.62,5.703c1.344,2.203,3.151,4.072,5.282,5.508   c1.361,0.922,2.811,1.699,4.316,2.332c-0.396,2.227-1.529,4.229-3.215,5.734C58.951,44.171,61.301,42.486,62.727,40.123z"/></g><text x="0" y="115" fill="#000000" font-size="5px" font-weight="bold" font-family="'Helvetica Neue', Helvetica, Arial-Unicode, Arial, Sans-serif">Created by Aldric Rodríguez</text><text x="0" y="120" fill="#000000" font-size="5px" font-weight="bold" font-family="'Helvetica Neue', Helvetica, Arial-Unicode, Arial, Sans-serif">from the Noun Project</text></svg>