<svg xmlns:dc="http://purl.org/dc/elements/1.1/" xmlns:cc="http://creativecommons.org/ns#" xmlns:rdf="http://www.w3.org/1999/02/22-rdf-syntax-ns#" xmlns:svg="http://www.w3.org/2000/svg" xmlns="http://www.w3.org/2000/svg" xmlns:sodipodi="http://sodipodi.sourceforge.net/DTD/sodipodi-0.dtd" xmlns:inkscape="http://www.inkscape.org/namespaces/inkscape" version="1.1" x="0px" y="0px" viewBox="0 0 100 125"><g transform="translate(0,-952.36218)"><path style="text-indent:0;text-transform:none;direction:ltr;block-progression:tb;baseline-shift:baseline;color:#000000;enable-background:accumulate;" d="m 49.98455,968.06538 c -0.4204,0 -0.6069,0.031 -0.5624,0.031 a 2.8002799,2.8002799 0 0 0 -2.6563,2.0625 c -0.4747,1.735 -1.1166,3.4487 -1.8125,4.625 -0.696,1.1762 -1.3482,1.6623 -1.6875,1.75 -0.3357,0.087 -1.1362,-0.027 -2.3125,-0.7188 -1.1764,-0.6923 -2.5533,-1.869 -3.8125,-3.1562 a 2.8002799,2.8002799 0 0 0 -3.3437,-0.5312 c -3.1461,1.6869 -5.9989,3.8507 -8.4688,6.4062 a 2.8002799,2.8002799 0 0 0 -0.4062,3.3438 c 0.8927,1.5612 1.6259,3.2142 1.9687,4.5312 0.3429,1.3171 0.2054,2.1112 0.031,2.4062 -0.1765,0.2998 -0.7767,0.7785 -2.0938,1.125 -1.3171,0.3466 -3.1437,0.4863 -4.9375,0.4688 a 2.8002799,2.8002799 0 0 0 -2.7187,2.0312 c -0.952,3.1425 -1.4688,6.4418 -1.4688,9.90632 0,0.4179 0.032,0.6513 0.031,0.625 a 2.8002799,2.8002799 0 0 0 2.0626,2.6563 c 1.7338,0.4733 3.4228,1.0941 4.5937,1.7812 1.1711,0.687 1.6641,1.3565 1.75,1.6875 0.086,0.331 -0.026,1.1042 -0.7187,2.2813 -0.693,1.177 -1.8693,2.583 -3.1563,3.8437 a 2.8002799,2.8002799 0 0 0 -0.5313,3.2813 c 1.6886,3.1563 3.8504,6.0279 6.4063,8.5 a 2.8002799,2.8002799 0 0 0 3.3437,0.4374 c 1.5646,-0.8928 3.2333,-1.6563 4.5626,-2 1.3289,-0.3438 2.1129,-0.2035 2.4062,-0.031 0.2978,0.1753 0.8139,0.8038 1.1562,2.125 0.3424,1.3212 0.4604,3.1387 0.4376,4.9375 a 2.8002799,2.8002799 0 0 0 2,2.6875 c 3.1424,0.9519 6.4729,1.5 9.9374,1.5 0.4352,0 0.5755,-0.033 0.4688,-0.031 a 2.8002799,2.8002799 0 0 0 2.6875,-2.0626 c 0.4791,-1.733 1.1112,-3.4468 1.8125,-4.625 0.7013,-1.1783 1.3791,-1.6306 1.7188,-1.7187 0.3354,-0.087 1.1373,0 2.3124,0.6875 1.1754,0.6962 2.5508,1.8928 3.8126,3.1875 a 2.8002799,2.8002799 0 0 0 3.3124,0.5313 c 3.1713,-1.6935 6.055,-3.8766 8.5313,-6.4376 a 2.8002799,2.8002799 0 0 0 0.4063,-3.3437 c -0.8993,-1.5636 -1.6529,-3.2353 -2,-4.5625 -0.347,-1.3273 -0.2062,-2.1092 -0.031,-2.4062 0.1797,-0.3061 0.7943,-0.8104 2.125,-1.1563 1.3305,-0.346 3.1619,-0.4909 4.9687,-0.4687 a 2.8002799,2.8002799 0 0 0 2.7188,-2 c 0.9419,-3.1306 1.4688,-6.4683 1.4688,-9.9063 0,-0.4239 -0.031,-0.5954 -0.031,-0.5313 a 2.8002799,2.8002799 0 0 0 -2.0625,-2.65622 c -1.73,-0.4757 -3.4538,-1.0853 -4.625,-1.7812 -1.1711,-0.696 -1.6295,-1.3759 -1.7188,-1.7188 -0.088,-0.3399 0,-1.1379 0.6876,-2.3125 0.6872,-1.1746 1.8719,-2.5537 3.1562,-3.8125 a 2.8002799,2.8002799 0 0 0 0.5312,-3.3125 c -1.6882,-3.1534 -3.8498,-6.0283 -6.4062,-8.5 a 2.8002799,2.8002799 0 0 0 -3.3438,-0.4063 c -1.5653,0.8945 -3.2417,1.6254 -4.5624,1.9688 -1.3208,0.3432 -2.1051,0.209 -2.4063,0.031 -0.3108,-0.1831 -0.7793,-0.801 -1.125,-2.125 -0.3457,-1.324 -0.4906,-3.1329 -0.4687,-4.9374 a 2.8002799,2.8002799 0 0 0 -2.0313,-2.7188 c -3.1428,-0.9484 -6.4631,-1.4688 -9.9063,-1.4688 z m 0,19.5938 c 8.0902,0 14.7188,6.5974 14.7188,14.68752 0,8.0902 -6.6287,14.7187 -14.7188,14.7187 -8.0902,0 -14.6874,-6.6285 -14.6874,-14.7187 0,-8.09012 6.5972,-14.68752 14.6874,-14.68752 z" fill="#000000" fill-opacity="1" stroke="none" marker="none" visibility="visible" display="inline" overflow="visible"/></g><text x="0" y="115" fill="#000000" font-size="5px" font-weight="bold" font-family="'Helvetica Neue', Helvetica, Arial-Unicode, Arial, Sans-serif">Created by Artdabana@Design</text><text x="0" y="120" fill="#000000" font-size="5px" font-weight="bold" font-family="'Helvetica Neue', Helvetica, Arial-Unicode, Arial, Sans-serif">from the Noun Project</text></svg>