<svg xmlns="http://www.w3.org/2000/svg" xmlns:xlink="http://www.w3.org/1999/xlink" viewBox="0 0 16 17.5" version="1.1" xml:space="preserve" style="" x="0px" y="0px" fill-rule="evenodd" clip-rule="evenodd" stroke-linejoin="round" stroke-miterlimit="1.41421"><g transform="matrix(1,0,0,1,-0,-1)"><path d="M13.622,1.29C13.792,1.292 13.959,1.317 14.12,1.372C14.55,1.518 14.903,1.854 15.07,2.277C15.137,2.447 15.171,2.626 15.178,2.808C15.221,6.224 15.306,9.642 15.176,13.056C15.166,13.225 15.132,13.39 15.07,13.547C14.913,13.945 14.59,14.269 14.192,14.426C14.022,14.493 13.843,14.526 13.661,14.533C9.874,14.581 6.084,14.676 2.3,14.532C2.131,14.521 1.966,14.488 1.808,14.426C1.41,14.269 1.087,13.945 0.93,13.547C0.863,13.377 0.829,13.198 0.822,13.016C0.779,9.6 0.694,6.182 0.824,2.768C0.834,2.599 0.868,2.434 0.93,2.277C1.087,1.879 1.41,1.555 1.808,1.398C1.978,1.331 2.157,1.297 2.339,1.29C6.1,1.243 9.861,1.29 13.622,1.29ZM14.714,3.972L1.306,3.972C1.262,6.992 1.208,10.013 1.323,13.031C1.33,13.145 1.353,13.257 1.395,13.364C1.502,13.634 1.722,13.854 1.992,13.961C2.107,14.006 2.228,14.029 2.352,14.033C6.126,14.081 9.903,14.176 13.675,14.032C13.789,14.025 13.901,14.003 14.008,13.961C14.278,13.854 14.498,13.634 14.605,13.364C14.651,13.248 14.673,13.127 14.678,13.003C14.716,9.993 14.787,6.981 14.714,3.972ZM3.333,12.988C4.375,12.821 5.881,12.804 6.955,11.73C7.399,11.286 7.399,10.565 6.955,10.121C6.511,9.677 5.79,9.677 5.346,10.121C4.272,11.195 4.494,12.344 3.333,12.988ZM6.37,9.303C6.717,8.585 7.345,7.726 8.167,6.904C9.785,5.286 11.546,4.419 12.097,4.969C12.647,5.52 11.78,7.281 10.162,8.899C9.343,9.718 8.488,10.344 7.771,10.692C7.76,10.614 7.743,10.536 7.721,10.46C7.675,10.306 7.607,10.158 7.518,10.024C7.472,9.955 7.42,9.891 7.366,9.828C7.308,9.767 7.308,9.768 7.248,9.71C7.102,9.585 6.945,9.48 6.766,9.408C6.639,9.356 6.506,9.321 6.37,9.303Z" style="" fill="black"/></g><text x="0" y="29" fill="#000000" font-size="5px" font-weight="bold" font-family="'Helvetica Neue', Helvetica, Arial-Unicode, Arial, Sans-serif">Created by Felix E.</text><text x="0" y="34" fill="#000000" font-size="5px" font-weight="bold" font-family="'Helvetica Neue', Helvetica, Arial-Unicode, Arial, Sans-serif">from the Noun Project</text></svg>