<svg xmlns="http://www.w3.org/2000/svg" xmlns:xlink="http://www.w3.org/1999/xlink" version="1.1" x="0px" y="0px" viewBox="0 0 95 118.75" enable-background="new 0 0 95 95" xml:space="preserve"><path d="M5.007,51.989c0,13.622,6.419,25.738,16.387,33.515c5.894-8.022,15.39-13.231,26.106-13.231s20.213,5.209,26.106,13.231  c9.968-7.776,16.387-19.893,16.387-33.515c0-23.469-19.024-42.493-42.493-42.493S5.007,28.521,5.007,51.989z M63.021,47.5  c0,8.573-6.948,15.521-15.521,15.521S31.979,56.073,31.979,47.5S38.928,31.979,47.5,31.979S63.021,38.927,63.021,47.5z"/><text x="0" y="110" fill="#000000" font-size="5px" font-weight="bold" font-family="'Helvetica Neue', Helvetica, Arial-Unicode, Arial, Sans-serif">Created by Guilherme Furtado</text><text x="0" y="115" fill="#000000" font-size="5px" font-weight="bold" font-family="'Helvetica Neue', Helvetica, Arial-Unicode, Arial, Sans-serif">from the Noun Project</text></svg>